<?xml version="1.0" standalone="no"?>
<!DOCTYPE svg PUBLIC "-//W3C//DTD SVG 20010904//EN"
 "http://www.w3.org/TR/2001/REC-SVG-20010904/DTD/svg10.dtd">
<svg version="1.0" xmlns="http://www.w3.org/2000/svg"
 width="864.000000pt" height="864.000000pt" viewBox="0 0 864.000000 864.000000"
 preserveAspectRatio="xMidYMid meet">
<metadata>
Created by potrace 1.11, written by Peter Selinger 2001-2013
</metadata>
<g transform="translate(0.000000,864.000000) scale(0.100000,-0.100000)"
fill="#000000" stroke="none">
<path d="M6999 8636 c-2 -2 -17 -7 -34 -9 -59 -11 -79 -17 -147 -43 -37 -15
-68 -31 -68 -36 0 -4 -5 -8 -10 -8 -34 0 -171 -131 -224 -213 -20 -31 -36 -58
-36 -60 0 -3 -8 -22 -17 -43 -19 -44 -17 -39 -37 -118 -18 -74 -14 -240 7
-317 9 -31 27 -82 41 -113 14 -31 23 -56 20 -56 -2 0 2 -13 10 -29 15 -27 42
-99 51 -131 2 -8 14 -46 25 -85 12 -38 23 -79 24 -90 2 -11 4 -20 6 -20 1 0 3
-9 5 -20 6 -30 21 -94 38 -155 8 -30 18 -68 20 -85 7 -35 25 -129 33 -165 3
-14 7 -41 8 -60 2 -19 6 -42 9 -50 8 -20 38 -213 52 -327 3 -23 7 -57 10 -75
5 -37 15 -115 20 -168 21 -200 33 -321 41 -440 3 -41 7 -100 9 -130 19 -273
23 -639 11 -825 -5 -60 -9 -128 -11 -150 -3 -43 -14 -135 -21 -168 -2 -10 -6
-45 -10 -76 -3 -31 -8 -65 -10 -76 -2 -11 -6 -38 -9 -60 -4 -32 -64 -284 -91
-380 -3 -11 -7 -27 -9 -35 -2 -8 -4 -15 -5 -15 -1 0 -3 -7 -5 -15 -1 -8 -19
-64 -40 -125 -79 -235 -200 -502 -318 -700 -40 -66 -74 -124 -76 -130 -2 -5
-8 -14 -12 -20 -30 -36 -79 -106 -79 -111 0 -3 -42 -58 -94 -123 -89 -111
-252 -282 -361 -381 -54 -48 -270 -212 -295 -223 -8 -4 -31 -17 -50 -29 -210
-128 -501 -240 -715 -273 -11 -2 -20 -4 -20 -5 0 -4 -265 -23 -315 -23 -74 1
-232 14 -280 23 -30 6 -66 13 -80 15 -67 9 -102 18 -190 46 -52 17 -102 32
-110 34 -38 8 -216 93 -340 163 -131 74 -242 150 -275 187 -5 7 -15 14 -22 16
-31 11 -255 226 -356 342 -29 33 -56 65 -62 71 -5 6 -22 27 -37 48 -15 20 -33
42 -40 50 -7 8 -17 21 -23 29 -5 9 -49 74 -96 145 -48 71 -98 149 -112 174
-50 88 -132 254 -129 262 1 4 -1 8 -6 8 -4 0 -13 15 -21 33 -7 17 -19 46 -26
62 -105 242 -189 508 -251 795 -11 49 -11 51 -18 90 -12 74 -14 86 -21 133 -4
27 -9 59 -11 70 -6 29 -14 116 -19 197 -2 36 -7 106 -11 155 -9 121 -9 384 1
580 4 88 9 185 10 215 2 30 4 55 5 55 1 0 3 34 5 75 2 41 6 98 9 125 3 28 8
75 11 105 18 197 39 376 50 440 3 14 7 50 10 80 3 30 8 62 10 70 2 8 7 35 10
60 6 44 30 183 39 226 2 12 7 39 10 60 4 22 8 46 11 54 2 8 6 26 9 40 14 73
39 177 66 280 17 63 33 124 35 134 9 38 37 122 55 161 73 164 100 262 101 371
1 102 -9 160 -42 250 -48 128 -126 229 -239 311 -71 51 -169 97 -230 108 -14
3 -45 8 -70 13 -100 19 -261 -3 -369 -51 -120 -52 -241 -159 -302 -267 -19
-34 -40 -68 -47 -76 -7 -8 -11 -14 -7 -14 3 0 -3 -13 -14 -29 -11 -15 -18 -31
-14 -35 3 -3 1 -6 -5 -6 -7 0 -12 -5 -12 -11 0 -5 -12 -36 -26 -67 -42 -92
-114 -273 -114 -288 0 -8 -4 -14 -8 -14 -5 0 -9 -6 -9 -12 0 -7 -16 -60 -35
-118 -35 -105 -70 -216 -74 -235 -1 -5 -14 -55 -29 -110 -29 -108 -33 -127
-41 -165 -3 -14 -14 -59 -24 -100 -10 -41 -22 -88 -25 -105 -3 -16 -8 -41 -11
-55 -3 -14 -7 -33 -10 -42 -3 -10 -7 -30 -10 -45 -2 -16 -7 -39 -9 -53 -12
-60 -16 -77 -21 -105 -3 -16 -9 -48 -14 -71 -5 -22 -12 -61 -15 -85 -3 -24 -7
-51 -10 -59 -2 -8 -6 -31 -9 -50 -3 -19 -8 -46 -11 -60 -4 -22 -7 -41 -21
-140 -3 -19 -8 -48 -10 -65 -3 -16 -7 -43 -9 -60 -2 -16 -7 -50 -10 -75 -8
-56 -11 -79 -20 -155 -4 -33 -8 -71 -10 -85 -1 -14 -5 -54 -9 -90 -3 -36 -9
-94 -12 -130 -23 -250 -29 -385 -28 -665 1 -314 8 -450 38 -690 2 -16 7 -57
11 -90 4 -32 9 -68 11 -80 2 -11 6 -33 9 -50 6 -39 12 -73 31 -165 9 -41 18
-84 20 -95 9 -45 13 -63 28 -130 21 -90 62 -243 88 -323 11 -34 21 -68 22 -75
2 -7 6 -19 9 -27 3 -8 17 -51 32 -95 36 -107 110 -295 146 -373 16 -35 29 -65
29 -68 0 -8 153 -318 160 -324 3 -3 13 -21 24 -40 75 -142 298 -490 318 -498
4 -2 8 -10 8 -17 0 -7 3 -15 8 -17 6 -2 48 -55 99 -123 14 -18 80 -99 99 -121
11 -12 39 -46 64 -75 52 -62 280 -292 360 -364 61 -54 87 -77 170 -145 30 -25
57 -48 58 -52 2 -5 8 -8 14 -8 6 0 32 -18 58 -40 26 -22 51 -40 55 -40 4 0 24
-13 44 -28 68 -53 295 -186 481 -280 102 -52 187 -94 190 -94 6 0 49 -16 75
-27 17 -8 49 -21 65 -26 3 -1 17 -7 33 -13 15 -7 38 -14 51 -16 14 -2 35 -10
48 -17 12 -7 24 -11 26 -10 1 1 53 -14 115 -33 61 -20 192 -51 290 -71 221
-43 269 -50 457 -62 188 -12 480 -7 629 12 43 6 229 37 291 50 14 3 66 12 115
21 50 9 98 21 108 26 10 5 26 11 35 13 71 14 355 113 456 159 32 15 63 28 70
29 6 1 13 4 16 7 10 10 224 115 228 112 3 -2 8 0 11 5 3 5 74 49 156 98 186
110 468 312 483 347 2 5 7 8 12 8 20 0 326 299 441 430 41 47 92 107 114 134
22 27 46 54 53 62 6 7 12 17 12 22 0 6 4 12 9 14 8 3 59 68 101 128 8 12 33
47 56 78 44 61 239 372 239 381 0 3 7 17 16 31 35 59 53 93 118 225 80 162
181 396 181 419 0 9 5 16 12 16 6 0 8 3 5 7 -4 3 0 17 8 30 9 13 13 23 10 23
-2 0 8 35 24 78 16 43 44 128 61 188 18 60 35 113 38 119 3 5 7 16 8 25 1 8
13 62 28 119 15 58 31 123 36 145 5 23 11 52 14 66 14 60 24 110 31 155 3 17
8 44 12 60 3 17 7 39 9 50 1 11 3 20 4 20 1 0 3 11 5 25 1 14 5 46 9 73 3 26
8 68 11 95 3 26 7 65 10 87 11 92 18 171 19 193 0 12 4 22 8 22 5 0 5 7 0 16
-5 9 -6 31 -3 48 8 34 6 651 -2 756 -5 68 -15 178 -23 268 -3 29 -7 80 -9 115
-2 34 -5 62 -5 62 -3 0 -10 45 -15 100 -3 33 -7 74 -10 90 -2 17 -6 48 -9 70
-3 22 -8 56 -11 75 -3 19 -10 67 -16 105 -6 39 -13 84 -16 100 -5 31 -12 75
-17 110 -2 11 -6 34 -9 50 -4 17 -9 46 -11 65 -3 19 -7 46 -10 60 -3 14 -10
50 -16 80 -6 30 -12 64 -14 75 -2 11 -12 56 -21 100 -23 115 -45 213 -61 268
-7 27 -13 52 -12 55 1 4 -1 14 -5 22 -5 13 -22 83 -31 130 -2 8 -6 22 -9 30
-6 16 -77 268 -81 285 -1 6 -4 15 -7 20 -4 6 -10 24 -14 40 -10 37 -9 34 -23
68 -7 16 -12 32 -12 36 0 8 -31 91 -56 148 -8 17 -14 34 -14 38 0 6 -8 25 -71
163 -16 34 -29 67 -29 71 0 5 -3 11 -7 13 -5 2 -23 32 -41 68 -57 115 -76 143
-152 220 -81 83 -188 146 -297 176 -53 14 -254 30 -264 20z m-5827 -2394 l67
-37 -4 -46 c-2 -26 -7 -60 -9 -75 -3 -16 -8 -53 -11 -81 -3 -29 -8 -77 -11
-105 -3 -29 -7 -69 -9 -88 -2 -19 -6 -62 -9 -95 -10 -102 -17 -187 -21 -255
-2 -36 -6 -108 -10 -160 -3 -52 -8 -144 -10 -205 -2 -60 -4 -119 -4 -130 -1
-20 -7 -21 -133 -20 l-133 0 0 102 c0 57 2 103 5 103 3 0 5 35 6 78 2 121 15
311 30 442 3 25 7 68 10 95 4 57 13 138 19 175 3 14 7 52 10 85 3 33 7 71 10
85 2 13 7 40 9 60 10 72 18 125 21 140 2 8 4 18 4 23 1 4 25 -6 54 -23 28 -17
82 -47 119 -68z m6484 61 c6 -44 12 -78 14 -78 1 0 3 -16 5 -35 9 -78 14 -119
24 -200 14 -108 21 -164 26 -220 2 -25 6 -65 9 -90 10 -102 19 -209 21 -270 2
-36 4 -65 5 -65 3 0 11 -180 13 -290 l2 -110 -132 -1 -133 0 -1 30 c-3 129 -9
249 -25 501 -8 121 -21 273 -29 335 -2 19 -7 62 -10 95 -10 96 -12 116 -21
180 -16 124 -23 111 106 186 63 37 116 66 118 64 2 -2 5 -16 8 -32z m-6493
-1850 c3 -5 8 -35 11 -68 4 -33 9 -73 12 -90 3 -16 7 -46 9 -65 6 -57 16 -121
31 -195 8 -38 17 -83 20 -100 3 -16 19 -84 36 -150 16 -66 31 -127 33 -135 2
-8 14 -46 26 -85 12 -38 24 -75 25 -82 1 -7 14 -48 30 -93 16 -47 23 -84 18
-89 -5 -5 -40 -25 -79 -46 -38 -21 -86 -48 -105 -61 -19 -13 -37 -24 -41 -24
-15 0 -158 455 -175 560 -3 14 -12 54 -20 90 -9 36 -18 74 -20 85 -2 11 -5 31
-8 45 -26 130 -29 147 -41 254 -8 70 -17 144 -24 193 -4 29 -6 55 -3 58 8 8
260 6 265 -2z m6583 -56 c-3 -34 -8 -80 -11 -102 -3 -22 -7 -60 -10 -85 -7
-59 -13 -94 -35 -220 -11 -58 -22 -118 -25 -135 -3 -23 -61 -253 -99 -395 -10
-37 -94 -282 -99 -286 -5 -5 -45 14 -57 26 -5 5 -51 30 -111 63 -13 6 -35 19
-47 29 l-24 16 36 110 c57 177 95 315 90 324 -3 4 -1 8 4 8 5 0 9 6 9 13 0 6
8 46 17 87 10 41 20 86 22 100 3 14 9 48 14 75 5 28 12 66 15 85 3 19 7 46 10
60 7 38 31 217 37 277 1 8 41 11 136 11 l134 0 -6 -61z m-6110 -1581 c19 -42
73 -139 126 -228 24 -39 50 -84 59 -99 8 -14 23 -34 32 -44 9 -9 17 -22 17
-29 0 -7 9 -21 20 -31 11 -10 20 -22 20 -28 0 -5 11 -23 25 -41 14 -17 29 -36
33 -41 51 -70 67 -91 74 -93 4 -2 8 -8 8 -13 0 -10 20 -36 68 -85 17 -19 32
-37 32 -40 0 -6 55 -67 130 -145 98 -101 92 -90 71 -130 -10 -18 -33 -59 -50
-89 -17 -30 -39 -70 -48 -87 -9 -18 -20 -33 -25 -33 -24 0 -333 339 -423 464
-30 42 -71 98 -94 128 -12 14 -21 31 -21 36 0 6 -4 12 -8 14 -11 4 -92 127
-92 139 0 5 -4 9 -9 9 -5 0 -11 8 -15 18 -5 17 -19 40 -62 112 -37 59 -124
229 -124 240 0 6 4 9 9 6 5 -4 11 -2 13 3 1 4 44 32 95 60 51 29 95 56 98 62
9 14 25 1 41 -35z m5500 -18 c6 -4 33 -20 60 -34 74 -39 81 -47 60 -78 -9 -14
-14 -26 -10 -26 4 0 1 -6 -5 -14 -7 -8 -25 -38 -40 -68 -92 -175 -320 -524
-396 -604 -5 -6 -21 -25 -35 -43 -89 -115 -329 -371 -348 -371 -4 0 -16 19
-27 42 -11 23 -24 46 -30 52 -6 6 -16 22 -23 36 -7 14 -24 45 -38 69 l-26 43
49 51 c26 28 59 63 73 77 14 14 50 55 80 90 30 36 61 73 70 82 33 37 166 217
215 293 22 33 43 62 47 63 5 2 8 8 8 13 0 5 16 33 35 63 46 72 85 142 137 243
l42 82 45 -26 c25 -15 51 -30 57 -35z"/>
</g>
</svg>
